<svg width="512" height="512" viewBox="0 0 512 512" fill="none" xmlns="http://www.w3.org/2000/svg">
<path d="M289.514 404.213C297.792 404.213 302.851 397.89 302.851 391.797C302.851 388.462 301.586 382.484 293.193 380.299C291.354 379.84 289.169 379.84 286.525 379.84H271.694L271.924 380.069C271.924 380.069 274.453 380.414 274.453 384.898V412.491C274.453 416.975 271.924 417.32 271.924 417.32L271.694 417.55H285.145L284.915 417.32C284.915 417.32 282.386 416.975 282.386 412.491V402.834C283.536 403.409 285.95 404.213 289.514 404.213ZM282.386 383.519H284.11C286.295 383.519 288.594 383.519 289.859 383.979C293.423 385.013 295.263 387.773 295.263 392.027C295.263 395.476 293.078 400.649 286.87 400.649C285.145 400.649 283.306 399.96 282.386 399.5V383.519ZM485.54 406.053C485.54 406.053 480.826 413.986 471.859 413.986C463.811 413.986 458.177 408.697 458.177 398.925C458.177 389.267 463.581 382.944 472.203 382.944C481.056 382.944 484.275 389.842 484.275 389.842L484.505 389.957V381.794C484.505 381.794 479.102 379.15 471.629 379.15C457.947 379.15 449.324 387.543 449.324 398.925C449.324 408.008 456.452 418.125 471.054 418.125C476.572 418.125 483.011 415.941 483.011 415.941L486 405.823L485.54 406.053ZM393.333 380.184L393.563 379.955H380.111L380.341 380.184C380.341 380.184 382.871 380.529 382.871 385.013V412.606C382.871 417.09 380.341 417.435 380.341 417.435L380.111 417.665H393.563L393.333 417.435C393.333 417.435 390.804 417.09 390.804 412.606V385.013C390.804 380.529 393.333 380.069 393.333 380.184ZM400.576 379.84L400.806 380.069C400.806 380.069 403.336 380.414 403.336 384.898V412.491C403.336 416.975 400.806 417.32 400.806 417.32L400.576 417.55H414.028L413.798 417.32C413.798 417.32 411.269 416.975 411.269 412.491V399.155H419.202C423.686 399.155 424.031 401.109 424.031 401.109L424.26 401.339V393.176L424.031 393.406C424.031 393.406 423.686 395.361 419.202 395.361H411.269V383.289H420.811C425.295 383.289 427.135 385.818 427.135 385.818L427.365 386.048V379.265C427.365 379.265 426.79 379.725 422.306 379.725H400.576V379.84ZM361.141 413.986C352.978 413.986 347.46 408.697 347.46 398.925C347.46 389.152 352.863 382.944 361.486 382.944C370.339 382.944 373.558 389.842 373.558 389.842L373.788 389.957V381.794C373.788 381.794 368.499 379.15 360.911 379.15C347.23 379.15 338.607 387.543 338.607 398.925C338.607 408.008 345.735 418.125 360.336 418.125C365.855 418.125 372.293 415.941 372.293 415.941L375.283 405.823L374.938 406.053C374.938 406.053 370.109 413.986 361.141 413.986ZM445.185 380.184L445.415 379.955H431.964L432.193 380.184C432.193 380.184 434.723 380.529 434.723 385.013V412.606C434.723 417.09 432.193 417.435 432.193 417.435L431.964 417.665H445.415L445.185 417.435C445.185 417.435 442.656 417.09 442.656 412.606V385.013C442.656 380.529 445.185 380.069 445.185 380.184ZM335.158 412.491L318.602 378L302.161 412.491C299.747 417.205 296.987 417.32 296.987 417.32L296.757 417.55H308.024L307.795 417.32C307.795 417.32 304.69 416.745 306.645 412.491L309.634 406.398H323.776L326.65 412.491C328.604 416.745 325.5 417.32 325.5 417.32L325.27 417.55H340.791L340.561 417.32C340.216 417.32 337.457 417.205 335.158 412.491ZM311.014 403.179L316.877 390.992L322.166 403.179H311.014ZM177.532 412.491C177.532 408.007 177.532 389.382 177.532 384.898C177.532 380.414 180.061 380.184 180.061 380.184L180.291 379.955H166.84L167.07 380.184C167.07 380.184 169.599 380.529 169.599 384.898C169.599 389.382 169.599 395.706 169.599 395.706H151.089V384.898C151.089 380.414 153.618 380.184 153.618 380.184L153.848 379.955H140.396L140.626 380.184C140.626 380.184 143.156 380.529 143.156 384.898V412.491C143.156 416.975 140.626 417.32 140.626 417.32L140.396 417.55H153.848L153.618 417.32C153.618 417.32 151.089 416.975 151.089 412.491V399.385H169.599V412.491C169.599 416.975 167.07 417.32 167.07 417.32L166.84 417.55H180.291L180.061 417.32C180.061 417.32 177.532 416.975 177.532 412.491ZM106.71 379.84C102.226 379.84 101.651 379.38 101.651 379.38V386.853L101.881 386.623C101.881 386.623 103.951 383.404 108.319 383.404H114.643V412.376C114.643 416.86 112.113 417.205 112.113 417.205L111.884 417.435H125.335L125.105 417.205C125.105 417.205 122.576 416.86 122.576 412.376V383.404H128.784C133.268 383.404 135.338 386.623 135.338 386.623L135.568 386.853V379.38C135.568 379.38 134.993 379.84 130.509 379.84H106.71ZM220.071 412.491L203.516 378L187.075 412.491C184.66 417.205 181.901 417.32 181.901 417.32L181.671 417.55H192.938L192.708 417.32C192.708 417.32 189.604 416.745 191.559 412.491L194.548 406.398H208.689L211.564 412.491C213.633 416.745 210.414 417.32 210.414 417.32L210.184 417.55H225.705L225.475 417.32C225.245 417.32 222.371 417.205 220.071 412.491ZM195.928 403.179L201.791 390.992L207.08 403.179H195.928ZM246.975 380.184C246.975 380.184 250.309 381.104 247.78 385.013C246.515 386.968 242.836 392.256 239.502 397.315C236.052 392.141 232.488 386.853 231.224 384.898C228.694 380.989 232.028 380.069 232.028 380.069L232.258 379.84H216.737L216.967 380.069C216.967 380.069 219.267 380.414 222.141 384.898C223.406 386.738 229.729 395.591 233.063 400.649V412.376C233.063 416.86 230.534 417.205 230.534 417.205L230.304 417.435H243.756L243.526 417.205C243.526 417.205 240.996 416.86 240.996 412.376C240.996 410.537 240.996 405.823 240.996 400.649C244.445 395.476 250.654 386.738 251.919 384.898C254.793 380.414 258.242 380.069 258.242 380.069L258.472 379.84H246.63L246.975 380.184ZM48.5344 413.986C40.3714 413.986 34.8528 408.697 34.8528 398.925C34.8528 389.267 40.2564 382.944 48.8793 382.944C57.7321 382.944 60.9513 389.842 60.9513 389.842L61.1812 389.957V381.794C61.1812 381.794 55.8925 379.15 48.3044 379.15C34.6228 379.15 26 387.543 26 398.925C26 408.008 33.1282 418.125 47.7296 418.125C53.2482 418.125 59.6866 415.941 59.6866 415.941L62.6758 405.823L62.3309 406.053C62.3309 406.053 57.5021 413.986 48.5344 413.986ZM101.421 412.491L84.8653 378L68.4244 412.491C66.01 417.205 63.2507 417.32 63.2507 417.32L63.0207 417.55H74.2879L74.058 417.32C74.058 417.32 70.9538 416.745 72.9083 412.491L75.8975 406.398H90.039L92.9133 412.491C94.8678 416.745 91.7636 417.32 91.7636 417.32L91.5336 417.55H107.055L106.825 417.32C106.595 417.32 103.721 417.205 101.421 412.491ZM77.2772 403.179L83.1407 390.992L88.4294 403.179H77.2772Z" fill="#006B6E"/>
<path d="M355.9 252.7C354.9 249 344.1 250.6 335.2 249.8C327.1 249.1 316.7 247.6 304.2 243.3C292.5 239.2 281.2 234.7 271.4 229.2C271.4 229.2 267.4 227.1 267 226.9C266.2 226.4 265.6 226.1 264.7 225.5C264.2 225.2 263.4 224.8 262.9 224.5C262.2 224.2 261.7 223.9 261.2 223.5C260.6 223.1 259.8 222.7 259.1 222.3C258.2 221.8 257.7 221.3 256.8 220.7C256.3 220.3 256 220.2 255.3 219.8C254.8 219.5 254.1 219.2 253.8 218.9C253 218.4 252.5 217.9 251.7 217.4C251.2 217 250.9 216.9 250.3 216.5C249.8 216.1 249.1 215.7 248.7 215.3C248.4 215.1 248 214.8 247.8 214.6C247.3 214.1 246.6 213.5 246 213.1C245.5 212.6 244.9 212.2 244.4 211.7C244 211.4 243.5 211 243.1 210.7C242.2 210.1 241.7 209.5 240.8 208.9C240.3 208.4 239.7 207.9 239.2 207.5C238.6 207 237.9 206.5 237.3 206C236.8 205.7 236.4 205.4 236 205C235.5 204.5 235.2 204.1 234.7 203.6C234.3 203.2 233.7 202.9 233.3 202.5C232.7 201.8 232 201.1 231.2 200.5C230.7 200.1 230.7 200 230.5 199.7C230.3 199.4 230 199.2 229.9 199C229.5 198.6 229.4 198.5 229.3 198.4C229 198.1 228.8 197.9 228.5 197.6C228.3 197.4 228.1 197.1 227.9 196.8C227.7 196.5 227.4 196.2 227.4 196.1C226.9 195.6 226.7 195.3 226.4 195C226.1 194.7 225.9 194.5 225.7 194.3C225.5 194.1 225.4 193.8 225.2 193.7C225.1 193.5 224.9 193.3 224.7 193.2C224.4 192.9 224.2 193 224.2 193C224 193.1 224 193.5 224.1 193.8C224.4 194.3 224.6 194.7 224.8 195L224.9 195.2L225.2 195.7C225.3 195.9 225.5 196.2 225.6 196.3C226 196.8 226.3 197.1 226.6 197.5L227 197.9C227.3 198.2 227.5 198.4 227.6 198.7C227.8 199 228 199.2 228.2 199.5L228.6 199.9C228.7 200.1 228.9 200.2 229 200.4L229.6 200.9L230.6 201.9C230.9 202.1 231.1 202.4 231.3 202.6C231.9 203.4 232.7 204.2 233.3 204.9C233.7 205.4 234.3 205.6 234.7 205.9C235.2 206.3 235.4 206.8 235.8 207.2C236.1 207.5 236.6 208 236.9 208.4C237.5 209.2 238 209.7 238.9 210.4C239.4 210.8 239.8 211.1 240.3 211.7C240.6 212.1 241.3 212.8 241.6 213.1C242.3 214 242.7 214.9 242.5 214.9C242 215 240.8 214 240.2 213.5C239.7 213.1 239.5 213 238.9 212.5C238.8 212.4 237.9 211.8 237.6 211.4C237.2 211 236.9 210.7 236.5 210.2C235.5 208.9 235.1 208.8 234.1 207.8C233.3 207 232.2 206.3 231.4 205.5C231.1 205.2 230.9 205 230.7 204.7C230.4 204.4 230.1 204.2 229.9 203.9C229.5 203.4 229 202.5 228.5 202.2C228 201.8 227.7 201.5 227.2 201.1C227 201 226.8 200.7 226.7 200.6C226.4 200.4 226.2 200.2 226 200.1C225.5 199.4 224.9 198.7 224.3 197.9C224 197.5 223.7 197.3 223.4 196.9C222.9 196.2 222.4 195.4 221.9 194.6C221.1 193.6 220 192.9 219.3 191.9C218.6 190.8 218 189.6 217.4 188.6C217.1 188.1 216.6 187.8 216.2 187.3C216 187 215.9 186.8 215.7 186.5C215.3 185.9 214.9 185.3 214.4 184.8C213.9 184.1 213.6 183.3 213 182.5C212.9 182.4 212.7 181.9 212.5 181.5C212.1 181 211.9 180.6 211.6 180.1C211.2 179.6 211.1 179.2 210.8 178.8C210.5 178.4 210.3 178.1 210.3 177.8C210.1 177.5 209.8 177 209.7 176.8C209.2 176.1 209.1 175.7 208.6 175.1C208.3 174.7 208 174.4 207.7 174.5C207.5 174.7 207.6 175 207.6 175.1C207.8 175.7 207.8 175.6 208.1 176C208.5 176.7 208.6 177 209 177.7C209.2 178 209.5 178.7 209.8 179.1C210.1 179.5 210.3 179.9 210.5 180.3C210.7 180.7 211 181.6 211.3 181.9C211.5 182.2 211.8 182.7 212 183.1C212.4 183.9 212.9 184.5 213.4 185.2L214.2 186.7C214.7 187.5 215.4 188.3 215.9 189.1C216.3 189.7 216.5 190.3 216.9 190.9C217.3 191.4 217.7 191.8 218 192.3C218.4 192.9 218.6 193.6 219 194.1C219.3 194.6 219.7 195 220 195.5C220.5 196.3 221 197 221.5 197.8C221.8 198.3 222.2 198.5 222.5 199C223 199.5 223.2 200.3 223.7 200.7C224.2 201.2 224.3 201.5 224.8 202C225.4 202.7 226.9 204.9 226.7 204.9C225.8 205 224.1 203.1 223.4 202.4C222.9 201.9 222.2 201.5 221.9 201C221.4 200.3 220.9 199.4 220.4 198.7C220.2 198.4 219.9 198.2 219.7 198C219.3 197.5 219 196.9 218.5 196.6C218.3 196.4 218.1 196.2 218 196.1C217.3 195.2 216.7 194.3 216 193.3C215.7 192.9 215.4 192.6 215.1 192.2C214.9 191.9 214.7 191.6 214.6 191.2C214.3 190.7 214 190.4 213.7 189.9C213.5 189.6 213.3 189.3 213.2 189C212.8 188.5 212.4 188 211.9 187.4C211.6 186.9 211.5 186.3 211.3 185.9C210.6 184.7 209.7 183.6 209 182.4C208.8 182.1 208.7 181.8 208.5 181.5C207.9 180.5 207.3 179.5 206.7 178.6C206.4 178.2 206.4 177.9 206.2 177.5C205.9 177 205.5 176.8 205.2 176.3C205 175.9 204.9 175.6 204.7 175.2C204.5 174.7 204.2 174.2 203.9 173.8C203.7 173.5 203.6 173.3 203.4 173C202.7 171.8 202 170.7 201.5 169.4C201.2 168.8 200.8 168.1 200.4 167.5C200 166.8 199.7 166.1 199.4 165.3C199.2 164.8 199 164.3 198.9 163.9C198.5 163.2 198 162.5 197.6 161.7C197.3 161.2 197.2 160.7 197.1 160.3C196.9 160 196.7 159.8 196.5 159.9C196.3 160 196.3 160.3 196.4 160.6C196.7 161.4 197 162.3 197.3 162.8C197.8 163.7 197.9 164.6 198.3 165.5C198.5 166 198.8 166.5 199.1 166.9C199.5 167.8 199.9 168.6 200.3 169.4C200.5 169.9 200.7 170.3 200.9 170.8C201 171.1 201.3 171.3 201.4 171.5C201.7 172.1 201.8 172.7 202 173.3C202.3 173.8 202.7 174.4 203 174.9C204.4 177.8 205.8 180.6 207.4 183.2C207.9 183.9 208.1 184.8 208.6 185.5C209.1 186.2 209.8 186.9 210.2 187.6C210.6 188.2 210.7 189 211.1 189.7C211.6 190.7 212.4 191.5 212.9 192.4C213.1 192.7 213.1 192.9 213.3 193.2C213.5 193.6 213.8 193.9 214 194.3C214.3 194.8 214.5 195.3 214.8 195.7C215.1 196.1 215.6 196.6 216 197.1C216.5 197.7 216.7 198.4 217.2 199C217.5 199.5 218 199.7 218.3 200.2C218.8 200.8 220.6 203.2 221.1 203.8C221.8 204.8 223.3 206.2 223.9 207.5C224.1 207.9 224.8 208.9 224.6 209C224.2 209.3 222.5 207.4 222.2 207.1C221.5 206.4 220.8 205.5 220.2 204.7C220 204.5 218.4 202.9 218.2 202.7C218 202.5 217.8 202.2 217.7 202.1C217.2 201.4 217 200.6 216.4 199.9C216.2 199.6 215.9 199.4 215.7 199.2C215.3 198.7 215.1 198.1 214.7 197.6C214.2 196.8 213.3 196.1 212.8 195.3C212.2 194.4 211.7 193.4 211 192.5C210.6 192 210.3 191.7 209.9 191.2C209.7 191 209.7 190.7 209.5 190.6C209.2 190.2 209 189.9 208.8 189.4C208.6 189 208.5 188.7 208.3 188.3C207.6 187.2 206.9 186.1 206.2 185.1C205.8 184.6 205.7 184.1 205.4 183.7C204.9 182.9 204.2 182.2 203.7 181.4C203.1 180.5 202.8 179.3 202.2 178.3C201.8 177.7 201.4 177.1 200.9 176.5C200.4 175.9 200.3 175.1 199.8 174.3C199.4 173.7 199 173.1 198.7 172.5C198.3 171.8 198.2 171.1 197.8 170.4C197.6 170 197.3 169.7 197.2 169.2C197.1 168.7 196.9 168.2 196.7 167.8C196.2 166.4 195.3 165.3 194.6 163.9C194.1 163 193.8 162 193.4 161C193.2 160.5 193.1 159.9 192.9 159.5C192.4 158.3 191.7 157.1 191.2 155.9C190.9 155.3 190.7 154.6 190.5 154C190.5 153.8 190.4 153.6 190.4 153.5C190.1 153 189.9 152.4 189.6 151.9C189.4 151.3 189.2 150.6 189 149.9C188.2 147.8 187.4 145.4 186.6 143.2C186.5 142.8 186.5 142.3 186.3 141.8C185.8 140.7 185.5 139.5 185 138.5C184.7 138 184.2 138.1 184.4 138.7C184.6 139.4 184.7 139.7 184.8 140.2C184.9 140.6 184.9 140.8 185 141.1C185.1 141.5 185.3 141.8 185.4 142.3C185.6 142.9 185.7 143.7 185.9 144.3C186.3 145.2 186.5 146.1 186.9 147C187 147.5 187.1 147.9 187.2 148.4C187.4 148.9 187.6 149.3 187.7 149.7C188.2 150.9 188.6 152 189.1 153.1C189.3 153.7 189.5 154.4 189.6 155.1C189.8 155.5 190.1 155.8 190.1 156.2C190.3 156.6 190.3 156.8 190.4 157.1C190.7 157.8 190.9 158.5 191.3 159.3C191.6 159.9 191.9 160.5 192.1 161.2C192.2 161.6 192.2 161.8 192.4 162.1C193.1 164 193.8 166.1 194.7 167.9C194.9 168.4 195 168.8 195.2 169.3C195.4 169.7 195.6 170.1 195.7 170.5C195.8 170.8 195.9 171 196 171.2C196.3 171.7 196.7 172.2 196.9 172.7C197.6 174.2 198.3 175.6 199.2 176.8C200 178 200.4 179.6 201 180.9C201.4 181.5 201.7 182.2 202.1 182.7C202.3 183 202.4 183.3 202.6 183.7C203.1 184.4 203.2 185.1 203.7 185.7C204.1 186.2 204.1 186.3 204.4 187.1C204.5 187.3 204.9 188.7 204.8 188.7C204.7 188.8 204 188.3 203.7 188.1C203.4 187.7 202.9 187.3 202.5 186.5C202.3 186.1 202 185.4 201.8 185.1C201.3 184.2 200.6 183.4 200.1 182.5C199.7 182 199.6 181.4 199.4 180.9C198.9 179.9 198.4 178.9 198 177.9C197.8 177.4 197.5 177.1 197.3 176.7C197 176.3 196.9 175.9 196.7 175.5C196.2 174.7 195.5 173.7 195.1 172.7C194.7 172 194.6 171.3 194.3 170.6C194.2 170.4 194 170.1 193.8 170C193.6 169.6 193.5 169.3 193.3 168.8C193 168.3 192.7 167.8 192.5 167.3C192 166.2 191.7 165.1 191.2 164.1C190.9 163.6 190.6 163.2 190.3 162.7C189.9 162 189.9 161 189.6 160.3C188.7 158.2 187.6 156.1 186.8 153.9C186.7 153.5 186.6 153.1 186.5 152.7C186.1 151.8 185.7 150.9 185.3 149.9C185.1 149.4 185.1 149.1 184.9 148.6C184.6 148 184.4 147.3 184.2 146.7C184.1 146.5 184.1 146.2 184 146.1C183.7 145.5 183.5 144.7 183.3 144.2C183.1 143.8 182.9 143.6 182.8 143.2C182.6 142.6 182.6 141.8 182.4 141.2C182 140.3 181.7 139.3 181.4 138.5C181.2 138 181.1 137.5 180.9 137C180.7 136.5 180.4 135.7 180.3 135.2C180.1 134.6 180.1 133.9 179.9 133.3C179.7 132.8 179.5 132.3 179.4 131.9C179.1 131.1 178.9 130.2 178.7 129.4L178.5 128.9C178.4 128.7 178.2 128.4 178 128.5C177.7 128.6 177.7 128.9 177.7 129.1C177.8 129.7 178 130.3 178.2 130.8C178.4 131.3 178.5 131.9 178.7 132.4C178.8 132.8 178.8 133.1 178.9 133.5C179 134 179.2 134.5 179.4 134.9C179.5 135.4 179.5 135.9 179.6 136.3C180 137.4 180.3 138.6 180.6 139.5C180.8 140 180.8 140.7 181 141.1C181.2 141.6 181.4 142.2 181.5 142.7C181.7 143.2 181.7 143.6 181.9 144.1C182.1 144.6 182.4 145 182.5 145.5C182.7 146.1 182.7 146.9 182.9 147.5C183.3 148.5 183.7 149.5 184.1 150.5L184.4 151.6C184.7 152.4 184.9 153.3 185.2 154.2C185.7 155.4 186.2 156.5 186.6 157.8C187.1 159 187.1 160.4 187.6 161.5C187.9 162 188.4 162.4 188.6 162.9C188.8 163.3 188.7 163.6 188.9 164C189.1 164.5 189.3 164.9 189.4 165.4C189.5 165.8 189.6 166.1 189.7 166.5C189.9 167 190.2 167.4 190.3 167.9C190.7 168.6 190.8 169.3 191.2 170C191.5 170.5 191.9 170.9 192.2 171.4C192.5 171.9 192.6 172.6 192.8 173.2C193.2 174.1 193.7 174.9 194 175.9C194.3 176.7 194.5 177.6 194.8 178.4C195.3 179.1 195.7 179.8 196.1 180.5C196.4 181 196.6 181.6 196.8 182.1C197 182.6 197.4 182.9 197.6 183.4C197.9 183.9 198.2 184.6 198.5 185.1C198.7 185.6 198.8 185.9 199 186.3C199.4 186.8 199.6 187.4 200 187.9C200.4 188.4 200.7 189.1 200.9 189.7C201.1 190.2 201.3 190.6 201.5 191.1C201.8 191.5 202.1 191.8 202.4 192.3C202.7 192.8 202.9 194.1 202.9 194.2C202.6 194.3 201.7 193.5 201.5 193.2C200.9 192.4 200.5 191.3 199.9 190.4C199.3 189.5 198.8 189 198.4 187.9C198.1 187.3 197.6 186.2 197.2 185.6C196.8 185.1 196.4 184.6 196.1 184.1C195.9 183.6 195.7 183 195.6 182.6C195.2 181.9 194.6 181.5 194.3 180.8C193.9 180 193.8 179.2 193.4 178.5C193.2 178.1 192.9 177.8 192.8 177.3C192.5 176.8 192.4 176.4 192.3 175.9C191.8 174.9 191.1 174.1 190.8 173.2C190.3 172.2 190.1 171.1 189.6 170.1C189.3 169.6 188.9 169.1 188.7 168.6C188.3 167.9 188.2 167.2 187.9 166.4C187.7 165.9 187.4 165.5 187.2 165.1C186.9 164.5 186.8 163.8 186.5 163.2C185.9 161.8 185.1 160.2 184.5 158.8C184.2 158.3 184.2 157.6 184 157.1C183.7 156.6 183.5 156.1 183.3 155.7C182.8 154.4 182.6 152.9 181.9 151.6C181.6 151 181.3 150.3 181 149.6C180.5 148.5 180.5 147.3 180 146.2C179.4 144.5 178.9 142.7 178.3 141C178.1 140.5 178.1 140 177.9 139.5C177.7 139 177.5 138.5 177.4 138C177.3 137.5 177.2 137 177 136.5C176.5 135.1 176.1 133.6 175.6 132.1C175.5 131.7 175.5 131.1 175.3 130.7C175.2 130.4 175.1 130.2 175 129.9C174.9 129.5 174.9 129.3 174.8 128.9C174.4 127.8 174.2 126.6 173.8 125.5C173.7 125.1 173.7 124.7 173.5 124.3C173 122.8 172.8 120.9 172.1 119.5C172 119.2 171.8 119 171.6 119C171.3 119.1 171.4 119.4 171.4 119.6C171.5 120.3 171.8 120.9 171.9 121.5C172 121.8 172 122.1 172 122.4C172 122.7 172.1 122.9 172.2 123.2C172.5 124.1 172.8 125.2 173.1 126.1C173.2 126.6 173.1 127.2 173.2 127.7C173.6 129.1 173.9 130.9 174.4 132.1C174.9 133.3 174.9 134.7 175.3 136C175.4 136.5 175.4 137.1 175.5 137.6C175.6 138.1 175.9 138.5 176 139C176.1 139.4 176.1 139.6 176.3 140C176.6 140.9 176.8 141.8 177.1 142.8C177.4 143.4 177.6 144.1 177.9 144.7C178 145 178 145.2 178.1 145.5C178.3 146.1 178.4 146.8 178.6 147.4C179.1 148.7 179.5 150 180 151.3C180.3 152 180.4 152.7 180.5 153.4C181.5 156.1 182.5 158.8 183.5 161.5C183.7 162.1 183.9 162.7 184 163.3C184.2 163.9 184.5 164.4 184.8 164.9C185.2 165.6 185.3 166.3 185.5 167.1C185.8 168 186.2 168.6 186.6 169.5C186.8 170 186.9 170.4 187.1 170.9C187.3 171.2 187.6 171.5 187.6 171.8C187.9 172.3 187.9 173 188.1 173.5C188.4 174 188.8 174.5 189.1 174.9C189.4 175.3 189.4 176 189.6 176.5C190 177.3 190.5 178.1 190.8 178.9C191 179.3 191 179.6 191.2 180C191.4 180.4 191.7 180.8 191.9 181.2C191.9 181.3 192 181.4 192 181.5C192.1 181.7 192.1 181.9 192.2 182C192.3 182.3 192.6 182.6 192.7 182.8C192.8 182.9 193 183.1 193.2 183.3C193.3 183.4 193.4 183.5 193.4 183.6C193.8 184.1 193.8 185 194.1 185.6C194.4 186.2 194.9 186.7 195.2 187.3C195.5 187.8 195.6 188.9 195.3 189C194 189 193.9 187.3 193.6 186.4C193.2 185.7 192.8 185.1 192.4 184.4C192.3 184.2 192.2 183.9 192.1 183.7C192 183.4 191.9 183.2 191.8 183C191.6 182.6 191.6 182.7 191.5 182.5C191.4 182.3 191 181.9 191 181.6C190.5 180.9 190.2 179.8 189.9 179.3C189.7 179 189.4 178.8 189.3 178.5C189 178 188.8 177.4 188.6 176.9C188.3 176.4 188 175.9 187.8 175.5C187.5 174.9 187.5 174.1 187.3 173.5C187.1 173.1 186.8 172.9 186.8 172.5C186.4 171.8 186.3 171.1 185.9 170.3C185.7 169.9 185.4 169.7 185.3 169.3C185 168.7 184.8 168.1 184.6 167.6C184 166.4 183.2 165.2 182.7 163.9C182.3 163.2 182.2 162.5 182 161.7C181.7 161.1 181.4 160.5 181.1 159.9C180.9 159.5 180.8 159.1 180.7 158.7C180.4 158.1 180.2 157.3 179.9 156.6C179.7 156.1 179.6 155.1 179.4 154.7C179.2 154.2 178.9 153.6 178.8 153.2C178.4 152.5 178.3 151.7 178 150.9C177.7 150.4 177.5 149.7 177.3 149.1C177.1 148.6 177 148.1 176.8 147.7C176.6 147.3 176.4 147 176.3 146.5C176.1 146 176 145.3 175.8 144.8C175.6 144.2 175.3 143.5 175.1 142.9C175 142.4 174.9 141.4 174.8 141C174.1 139 173.5 136.9 172.9 135C172.6 134.1 172.4 133.2 172.3 132.3C172.2 131.9 172.2 131.5 172.1 131.1C171.9 130.6 171.6 129.9 171.5 129.4C171.4 129 171.3 128.6 171.2 128.2C171.1 127.8 170.9 127.4 170.7 126.9C170.3 125.7 170.1 124.5 169.8 123.3C169.7 122.8 169.7 122.2 169.5 121.8C169 120.4 169 118.7 168.5 117.2C168.4 116.7 168.3 116.3 168.2 115.9C167.5 113.1 167.1 110 166.3 107.3C166.1 106.8 166.3 106.1 166.2 105.6C166 105.1 165.8 104.4 165.7 103.9C165.6 103.6 165.6 103.4 165.5 103.1C165.3 102.6 165.1 102.3 164.9 102.4C164.6 102.5 164.6 102.8 164.6 103.1C164.6 103.7 164.7 104.3 164.8 104.7C164.9 105.2 164.8 105.5 165 105.9C165.3 106.8 165.4 108 165.5 108.8C165.6 109.2 165.5 109.6 165.6 110C165.7 110.4 166 110.9 166.1 111.4C166.2 111.9 166.2 112.8 166.3 113.4C166.4 113.9 166.6 114.5 166.8 114.9C166.9 115.4 166.8 115.7 167 116.2C167.1 116.7 167.4 117 167.5 117.5C167.6 118 167.5 118.8 167.6 119.1C168.2 121.5 168.4 124.5 169.1 126.8C169.2 127.2 169.2 127.5 169.3 127.9C169.9 130 170.4 132.2 171 134.3C171.1 134.6 171.1 134.9 171.2 135.3C171.4 136 171.6 136.8 171.7 137.6C171.8 138 171.8 138.2 171.9 138.6C172.1 139.3 172.4 140.1 172.6 140.9C172.7 141.3 172.7 141.6 172.8 142C172.9 142.3 173 142.6 173.1 142.9C173.2 143.4 173.2 143.7 173.3 144.2C173.4 144.5 173.6 144.7 173.7 144.9C173.8 145.4 173.9 145.8 174 146.3C174.2 146.8 174.5 147.3 174.6 147.8C174.8 148.3 174.8 148.7 175 149.1C175.3 149.8 175.6 150.7 175.9 151.4C176.2 152 176.2 152.7 176.4 153.3C176.6 153.8 176.8 154.2 176.9 154.6C177 155 177.1 155.2 177.2 155.6C177.3 155.9 177.7 156.4 177.8 156.8C178 157.3 177.9 157.9 178.1 158.3C178.3 158.8 178.6 159.2 178.7 159.7C178.9 160.2 178.9 160.7 179 161.1C179.1 161.5 179.4 161.8 179.5 162.2C179.7 162.7 179.8 163 180 163.4C180.1 163.7 180.4 163.9 180.5 164.2C180.7 164.7 180.9 165.2 181 165.6C181.3 166.2 181.3 167.1 181.5 167.9C181.6 168.2 181.5 168.6 181.4 168.7C181 168.8 180.8 168.2 180.5 168C180.1 167.5 179.8 166.9 179.5 166.3C179.4 166 179.3 165.8 179.2 165.6C179 165.1 178.8 164.5 178.6 164C178.4 163.6 178.2 163.4 178.1 163C177.9 162.5 178 161.9 177.8 161.5C177.6 161.1 177.3 160.9 177.2 160.5C177.1 160.1 177 159.8 176.8 159.5C176.6 159.1 176.3 158.8 176.2 158.3C176 157.9 176 157.6 175.9 157.1C175.8 156.6 175.6 156.1 175.4 155.7C175.2 155.2 174.9 154.8 174.7 154.3C174.6 154 174.5 153.8 174.5 153.5C174.4 153.1 174.1 152.8 174 152.4C173.9 152.1 173.8 151.9 173.7 151.6C173.5 151.2 173.3 150.8 173.2 150.3C173.1 149.9 173 149.6 172.9 149.2C172.7 148.6 172.4 147.8 172.3 147.3C172.2 146.8 172.1 146.3 171.9 145.9C171.7 145.4 171.4 144.8 171.3 144.3C171.1 143.8 171.1 143.4 170.9 142.9C170.7 142.3 170.4 141.7 170.2 141.1C170.1 140.6 170 140.1 169.9 139.7C169.5 138.5 169.2 137.3 168.8 136.1C168.3 134.7 168.3 133.3 168 132C167.7 131 167.4 130.1 167.1 129.2C167 128.7 167 128.2 166.8 127.8C166.5 126.7 166.2 125.4 165.8 124.2C165.6 123.7 165.7 123 165.5 122.4C165.3 121.8 165.3 121 165.1 120.3C165 119.8 164.8 119.6 164.7 119C165.4 118.2 165.5 117.6 165.4 117.1C165.3 116.7 164.7 114.4 164.6 113.9C164.5 113.4 164.5 112.6 164.4 112.4C164.3 112.2 164 111.2 163.9 111C163.9 110.7 163.9 110.5 163.7 109.9C163.6 109.4 163.2 108.2 163.2 107.9C163.1 107.5 163.1 106.9 163.1 106.5C163 106.1 162.8 105.4 162.6 104.8C162.4 104.1 162.6 103.4 162.4 102.8C162.2 102.3 162.1 101.9 161.9 101.4C161.7 100.9 161.6 100.6 161.5 100.2C161.5 99.8 161.5 99.1 161.5 98.8C161.5 98.4 161.3 97.8 161.3 97.3C161.2 96.7 161 95.9 160.9 95.3C160.8 95 160.9 94.7 160.8 94.4C160.5 93.7 160.3 93 160 93C159.7 93 159.6 93.3 159.7 93.7C159.9 94.3 160 94.8 160.1 95.3C160.2 95.6 160.2 96.4 160.2 96.7C160.2 97.2 160.2 97.2 160.3 97.6C160.3 97.8 160.4 98.1 160.5 98.3C160.6 98.5 160.6 98.8 160.6 99V99.9C160.6 100.2 160.6 100.2 160.7 100.5C160.8 100.9 160.8 100.9 160.9 101.1V101.7C160.9 102 160.9 102.2 161 102.4C161.2 102.9 161.5 103.6 161.4 104.3C161.2 105.1 161.5 105.8 161.7 106.5C161.8 107 161.7 107.4 161.8 107.9C162 108.4 162.1 109.1 162.3 109.7C162.4 110.2 162.3 110.6 162.5 111.1C162.7 111.7 163.1 112.6 163.2 112.9C163.3 113.2 163.2 114 163.3 114.5C163.3 115 163.5 115.6 163.5 115.9V116.6C163.5 116.9 163.9 118 163.9 118.2C164 118.5 164 118.7 164 118.9C164.2 119.3 164.5 120.5 164.5 120.9C164.6 121.3 164.6 121.5 164.6 121.9C164.7 122.5 165 123 165.1 123.6C165.2 124.1 165.2 124.3 165.2 124.7C165.3 125.2 165.5 125.7 165.7 126.2C165.8 126.7 165.8 127 165.9 127.4C166.1 128.3 166.2 129.1 166.4 130C166.6 130.5 166.9 131 167 131.4C167.1 131.9 167.2 132.4 167.3 132.8C167.4 133.2 167.7 133.5 167.8 134C167.9 134.4 167.9 134.7 167.9 135.1C168 135.6 168.2 135.9 168.3 136.4C168.4 136.8 168.3 137 168.4 137.4C168.5 137.8 168.7 138.1 168.8 138.5C168.9 139 168.9 139.4 169 139.9C169.1 140.4 169.4 140.9 169.5 141.4C169.7 141.9 169.6 142.3 169.7 142.8C170 143.9 170.3 145.1 170.7 146C170.9 146.5 170.8 147.1 171.1 147.6C171.3 148 171.4 148.2 171.6 148.6C171.7 149 171.6 149.3 171.7 149.7C171.9 150.3 172 151.2 172.2 151.9C172.5 152.6 172.8 153.2 173.1 153.9C173.4 154.6 173.4 155.3 173.6 156.1C173.8 156.7 174.1 157.4 174.4 157.9C174.6 158.4 174.5 159.1 174.8 159.6C175.1 160.2 175.4 160.7 175.7 161.2C176 161.9 176.2 162.6 176.3 163.3C176.4 163.6 176.4 163.9 176.5 164.2C176.8 165.1 177.2 165.8 177.6 166.7L177.9 167.8C178.1 168.4 178.4 169.1 178.6 169.7C178.9 170.2 179.2 170.8 179.4 171.3C179.6 171.8 179.7 172.3 179.9 172.8C180.1 173.3 180.4 173.8 180.5 174.3C180.6 174.7 180.6 174.9 180.8 175.2C181.4 176.6 182.2 178 182.8 179.3C183.2 180 183.3 180.8 183.6 181.6C183.9 182.2 184.2 182.8 184.5 183.4C184.7 183.8 184.7 184.2 184.9 184.6C185.3 185.3 185.7 186.1 186.1 186.9C186.2 187.1 186.5 187.9 186.4 188.2C186.4 188.2 186.4 188.3 186.3 188.3C186 188.4 185.6 187.9 185.4 187.7C184.5 186.9 184.4 185.2 183.8 184.1C183.6 183.7 183.4 183.4 183.3 183.1C183.2 182.8 183.1 182.6 183 182.4C182.6 181.7 182.1 181 181.8 180.2C181.5 179.7 181.5 179 181.3 178.5C180.3 176.3 179.1 174.3 178.1 172.1C177.6 171.1 177.6 170 177.2 168.9C176.9 168.3 176.6 167.7 176.3 167.2C176.1 166.7 176 166.2 175.8 165.8C175.5 165.2 175.1 164.6 174.9 163.9C174.7 163.4 174.7 163 174.5 162.6C174.3 162.1 174 161.7 173.8 161.2C173.5 160.5 173.4 159.8 173.3 159C173.2 158.5 173 158.2 172.8 157.7C172.7 157.3 172.6 157 172.5 156.6C172.2 155.8 171.7 155.1 171.4 154.3C171.2 153.8 171.2 153 170.9 152.5C170.7 152 170.4 151.7 170.2 151.2C170 150.7 170.2 150.1 170 149.6C169.8 149.1 169.6 148.5 169.5 148C169.4 147.6 169.4 147.4 169.3 147C169 146.4 168.8 145.6 168.6 145C168.5 144.6 168.5 144.4 168.3 144C168.1 143.6 167.8 143.2 167.7 142.8C167.6 142.1 167.6 141.4 167.4 140.7C167.1 139.8 166.9 139.2 166.6 138.4C166.5 138.1 166.5 137.9 166.5 137.6C166.3 136.9 166.2 136.1 166 135.3C165.9 134.9 165.9 134.7 165.8 134.3C165.6 133.6 165.3 132.9 165.2 132.2C165.1 131.7 165.1 131.3 164.9 130.9C164.5 129.8 164.3 128.6 163.9 127.5C163.8 127.2 163.8 126.9 163.7 126.6C163.4 125.8 163.1 124.8 162.9 123.9C162.8 123.4 162.8 122.9 162.7 122.5C162.6 122 162.3 121.3 162.2 120.8C162.2 120.5 162.2 120.3 162.2 120.1C162.2 119.7 162.2 119.4 162.1 119C161.7 117.5 161.1 115.7 160.8 114.1C160.7 113.6 160.7 113 160.6 112.5C160.5 112.1 160.5 111.7 160.4 111.3C160.3 110.9 160.1 110.5 160 110.1C159.9 109.5 159.9 108.8 159.8 108.2C159.8 108.2 159.8 108.1 159.8 108C159.7 107.2 159.3 105.7 159.2 105C159.1 104.3 159 103.5 158.9 102.7C158.9 102.2 158.8 101.7 158.7 101.2C158.5 100.5 158.3 99.8 158.2 98.9C158.2 98.4 158.2 97.9 158.1 97.5C158.1 97.2 158 96.7 157.6 96.7C157.3 96.8 157.3 97.2 157.3 97.5C157.3 98.3 157.4 99.4 157.5 99.8C157.6 100.7 157.5 101.6 157.6 102.6C157.7 103.1 157.9 103.7 157.9 104.1C158 105 158.1 105.9 158.3 106.7V106.8C158.3 107.2 158.4 107.6 158.5 108V108.1V108.2V108.3C158.5 108.5 158.6 108.7 158.6 108.8C158.7 109.2 158.7 109.4 158.8 109.8C159.1 110.8 159 112 159.3 113C159.8 114.5 159.9 116.2 160.4 117.6C160.5 118.1 160.4 118.5 160.5 119C160.6 119.5 160.8 119.9 160.9 120.4C161 120.9 160.9 121.6 161.1 122.1C161.2 122.6 161.4 123.2 161.6 123.6C161.8 124.2 161.8 124.9 162 125.5C162.2 126.1 162.5 126.9 162.5 127.6C162.6 128.3 162.7 129.2 162.9 130C163.1 130.5 163.4 131.4 163.6 132.1C163.7 132.4 163.6 132.6 163.7 132.8C163.8 133.3 164 133.9 164.1 134.3C164.2 134.6 164.1 134.8 164.2 135C164.5 136 164.7 137.2 165 138.2C165.1 138.5 165.1 138.7 165.2 139C165.4 139.7 165.6 140.2 165.7 140.5C165.8 140.9 165.8 141.2 165.9 141.6C166.1 142.1 166.3 142.6 166.4 143C166.5 143.4 166.6 143.6 166.7 144C166.8 144.5 167 144.8 167.2 145.3C167.5 146.2 167.6 147.1 167.8 147.9C168 148.4 168.3 148.9 168.4 149.4C168.6 149.9 168.6 150.5 168.8 151C169.1 151.8 169.4 152.8 169.7 153.6C170.1 154.6 170.2 155.7 170.6 156.7C170.8 157.1 170.7 157.4 170.9 157.9C171.2 158.8 171.5 159.9 171.8 160.9C172 161.4 172 161.9 172.2 162.3C172.6 163.1 173 163.7 173.3 164.6C173.6 165.3 173.6 166 173.8 166.7C174.2 167.6 174.5 168.4 174.9 169.4C175.2 170 175.2 170.7 175.4 171.3C175.6 171.8 175.9 172.4 176.1 172.8C176.3 173.3 176.4 173.7 176.6 174.2C176.7 174.6 177.1 175.1 177.3 175.6C177.6 176.2 177.7 176.9 177.8 177.6C178.2 178.6 178.7 179.7 179.1 180.7C179.3 181.1 179.3 181.4 179.5 181.8C179.8 182.5 180.2 183 180.5 183.6C180.8 184.2 180.9 184.9 181.1 185.4C181.5 186.3 181.8 186.7 181.8 187.9C181.8 188 181.8 188.1 181.6 188.2C181.4 188.3 181.1 187.9 181 187.7C180.4 187.1 180.3 186.4 179.8 185.5C179.2 184.1 178.4 182.9 177.8 181.6C177.4 180.9 177.3 180.2 177 179.4C176.8 178.9 176.5 178.5 176.4 178.1C176.1 177.5 175.9 176.8 175.7 176.3C175.2 175.5 174.9 174.5 174.5 173.6C174.3 173.2 174.3 172.9 174.2 172.6C174 172.2 173.7 172 173.7 171.6C173.4 171.1 173.3 170.3 173.1 169.8C172.6 168.7 172 167.5 171.7 166.4C171.3 165.3 171.2 164.3 170.8 163.2C170.6 162.7 170.4 162.3 170.3 161.8C170.2 161.4 170.2 161.1 170 160.7C169.6 159.7 169.2 158.7 168.7 157.8C168.5 157.3 168.4 156.9 168.2 156.4C168 155.8 167.7 155.1 167.5 154.6C167.2 153.8 167.2 152.9 167 152.1C166.4 150.4 165.6 148.6 165 146.7C164.9 146.2 164.9 145.8 164.8 145.4C164.5 144.5 164.2 143.5 163.9 142.5C163.5 141.4 163.6 140.2 163.3 139.3C162.8 137.9 162.4 136.5 161.9 135.2C161.8 134.8 161.8 134.4 161.7 133.9C161.4 132.8 161.1 131.6 160.7 130.7C160.5 130.2 160.5 129.7 160.3 129.3C160.1 128.8 159.5 128.9 159.6 129.6C159.6 130.1 159.9 130.9 159.9 131.2C160 131.6 160 132 160.1 132.4C160.3 133.1 160.6 133.8 160.7 134.4C161 135.1 161 135.8 161.2 136.5C161.3 136.9 161.5 137.2 161.6 137.6C161.8 138.3 161.8 139 162.1 139.8C162.3 140.3 162.5 141 162.6 141.5C162.6 141.5 162.6 141.8 162.7 142.1C162.9 142.7 163.1 143.4 163.3 144.1C163.4 144.5 163.4 144.8 163.5 145.1C163.7 145.6 163.8 146.2 164 146.6C164.1 147.1 164.1 147.7 164.3 148.2C164.6 149.1 164.9 150 165.2 150.9C165.6 151.8 165.6 152.8 165.9 153.8C166.5 155.5 167.1 157.4 167.7 159.1C167.9 159.6 167.8 160 168 160.5C168.2 161.2 168.4 161.9 168.6 162.7C168.7 163.1 169 163.4 169.1 163.7C169.3 164.2 169.4 164.6 169.6 165C169.8 165.4 170 165.7 170.1 166C170.3 166.5 170.2 167.2 170.5 167.7C170.7 168.2 170.9 168.5 171 169C171.1 169.5 171.2 170 171.4 170.4C171.6 170.8 171.9 171.1 172 171.5C172.2 171.9 172.2 172.2 172.4 172.7C172.6 173.1 172.8 173.5 172.9 173.9C173.1 174.4 173.1 174.8 173.3 175.3C173.5 175.7 173.8 176 173.8 176.5C174 177 174 177.4 174.2 177.9C174.5 178.5 174.8 179.2 175.2 179.8C175.4 180.3 175.5 180.8 175.7 181.2C176 181.7 176.2 182.3 176.5 182.8C176.9 183.5 177 184.3 177.4 185C177.9 186.3 178.1 187.5 178.7 188.8C179.1 189.7 179.7 190.5 180.1 191.4C180.3 191.9 180.4 192.4 180.6 192.8C180.9 193.3 181.3 193.8 181.5 194.3C181.7 194.8 181.9 195.4 182 195.9C182.4 196.5 182.7 197.2 183.1 197.9C183.3 198.3 183.4 198.6 183.6 199C184 199.7 184.5 200.4 184.9 201.1C185.1 201.6 185.3 202 185.4 202.5C185.8 203.3 186.3 203.9 186.8 204.8C187.1 205.3 187.3 206 187.6 206.5C188.1 207.3 188.5 207.9 189 208.7C189.4 209.2 189.8 210.1 190.1 210.6C190.4 211.2 190.8 211.7 191.1 212.2C191.4 212.7 191.7 213.4 192 213.9C192.4 214.5 192.7 214.9 193.1 215.5C193.7 216.4 194.1 217.4 194.7 218.4C195.2 219 195.6 219.8 196.1 220.3C197.4 222 199.1 225 199.8 226C200.4 226.8 201 227.8 201.5 228.6C202 229.2 202.5 230 202.9 230.6L204 232.2L204.3 232.7C220 252.6 236 265.8 249.6 274.3C256.8 278.8 260.7 280.1 260.7 280.1C261.6 280.5 261 281.2 260.5 281.5L179.8 333.1C179.5 333.3 178.9 333.7 179.2 334.3C179.4 334.7 180.2 334.5 180.5 334.4C245.3 311.7 292.2 293 321 279.4C347.2 264.5 357 256.7 355.9 252.7Z" fill="#006B6E"/>
</svg>
